<svg version="1.1" id="Layer_1" xmlns="http://www.w3.org/2000/svg" xmlns:xlink="http://www.w3.org/1999/xlink" x="0px" y="0px"
	 width="100%" viewBox="0 0 236 354" enable-background="new 0 0 236 354" xml:space="preserve">
<path fill="#FEFEFE" opacity="1.000000" stroke="none" 
	d="
M237.000000,213.000000 
	C237.000000,249.020889 237.000000,285.041779 236.732452,321.193298 
	C216.650101,321.349854 196.835297,321.375793 176.588486,321.263733 
	C175.336105,321.065308 174.516663,320.975311 173.695175,320.948975 
	C166.096436,320.704987 165.058563,321.733368 165.057663,329.184784 
	C165.057022,334.447968 164.944336,339.711151 164.460831,344.986359 
	C159.258392,345.331421 154.479233,345.902344 149.694702,345.951721 
	C136.724777,346.085571 123.747887,346.207031 110.783165,345.915436 
	C103.698029,345.756042 96.606880,344.948944 89.564911,344.064087 
	C83.515068,343.303833 77.531242,342.018250 71.469589,340.501892 
	C71.409195,335.583862 71.362030,331.128632 71.396355,326.674042 
	C71.426231,322.796509 69.577377,320.794891 65.690872,320.888519 
	C59.762985,321.031342 53.837280,321.264954 47.460636,321.345093 
	C31.673750,321.153412 16.336874,321.076691 1.000000,321.000000 
	C1.000000,285.312439 1.000000,249.624878 1.451879,213.435486 
	C4.916743,212.875092 7.929728,212.816528 11.407416,212.846741 
	C29.828527,212.936142 47.784935,212.934662 65.741341,212.938477 
	C72.115089,212.939835 73.790329,210.871796 72.386154,204.751007 
	C72.202415,203.950119 72.042999,203.119934 72.044662,202.303665 
	C72.108688,170.884018 72.192841,139.464417 72.689529,108.036942 
	C79.804207,109.261299 86.503670,110.493515 93.203133,111.725731 
	C93.271935,111.494247 93.340736,111.262764 93.409538,111.031281 
	C86.396446,108.334717 79.383354,105.638153 72.273346,102.485840 
	C72.185471,86.031204 72.194496,70.032310 72.487762,54.011768 
	C72.953117,53.932568 73.134239,53.875027 73.624969,53.934113 
	C87.125221,64.394043 100.389877,74.645187 113.457443,85.141708 
	C116.977791,87.969429 119.721619,87.903137 123.109451,85.102051 
	C129.503342,79.815521 136.104706,74.779327 142.636414,69.660255 
	C149.602615,64.200668 156.587982,58.765564 163.763199,53.165058 
	C164.259293,54.542404 164.532593,55.301159 164.708252,56.306751 
	C164.674088,56.718784 164.737534,56.883976 164.663437,57.497726 
	C164.514618,104.636391 164.501266,151.326508 164.506348,198.016617 
	C164.506454,198.998108 164.719452,199.979568 164.750916,201.232117 
	C164.727905,201.682510 164.787109,201.861832 164.712036,202.374146 
	C162.325897,211.321884 163.630219,212.943802 172.627136,212.943451 
	C194.084763,212.942627 215.542374,212.978790 237.000000,213.000000 
M117.270874,244.068100 
	C118.166245,240.392563 119.061615,236.717010 120.033501,232.727371 
	C115.322258,234.173645 112.895187,239.163239 112.173889,245.989563 
	C109.935730,246.410645 107.616211,246.585922 105.473427,247.295181 
	C95.980400,250.437363 86.545311,253.754532 77.056541,256.910004 
	C76.572403,257.071014 75.784561,256.318787 74.669586,255.412018 
	C72.755569,254.561462 70.909851,253.226059 68.915596,252.945129 
	C60.706837,251.788788 52.401848,251.260818 44.231220,249.905197 
	C37.221611,248.742203 30.409521,246.304031 23.385098,245.351562 
	C19.992760,244.891586 15.133865,245.402084 13.056764,247.535248 
	C10.352094,250.312943 11.324140,254.884750 13.977257,258.466827 
	C18.542881,264.631042 25.240396,266.170410 32.195999,267.534851 
	C46.420330,270.325195 60.304520,271.187500 73.603401,262.249054 
	C75.547478,262.495087 77.491180,262.952148 79.435684,262.955597 
	C108.951454,263.008026 138.467316,263.001007 168.650757,263.201874 
	C172.095642,264.798798 175.398392,266.921753 179.011032,267.897797 
	C191.856873,271.368408 204.447815,268.855225 216.692535,264.904785 
	C220.055740,263.819702 222.973114,260.765350 225.592743,258.117645 
	C228.591019,255.087250 229.101074,250.385773 226.571365,247.665802 
	C224.602264,245.548599 219.796127,244.451233 216.803101,245.177277 
	C201.482178,248.893723 186.240601,252.708527 170.339081,252.912476 
	C166.603851,252.960373 163.890778,254.592484 163.325241,258.916046 
	C152.396439,255.611526 141.464005,252.318924 130.540604,248.996597 
	C126.172203,247.667953 121.823692,246.273865 117.270874,244.068100 
z"/>
<path fill="currentColor" opacity="1.000000" stroke="none" 
	d="
M63.000000,1.000000 
	C120.932274,1.000000 178.864548,1.000000 237.000000,1.000000 
	C237.000000,67.687424 237.000000,134.375046 236.538422,201.622467 
	C218.114273,202.206635 200.151703,202.235916 182.189148,202.252960 
	C175.069290,202.259720 175.038513,202.247391 175.036087,195.217560 
	C175.020050,148.480667 175.021194,101.743774 175.001419,55.006889 
	C175.000580,53.018074 174.848511,51.029320 174.848328,48.701561 
	C174.873764,47.904537 174.817764,47.446491 174.850983,46.572548 
	C175.208450,42.712585 175.115768,39.299889 171.535202,37.493244 
	C168.023865,35.721519 165.602936,38.176865 163.097549,40.113415 
	C158.628952,43.567436 154.044708,46.876415 149.654510,50.426208 
	C142.188995,56.462601 134.836411,62.638672 127.301979,68.751266 
	C127.167580,68.746490 126.996353,68.953934 126.668289,69.003281 
	C124.884163,70.363617 123.428093,71.674606 121.986031,72.993759 
	C122.000038,73.001923 121.987915,72.972008 121.658768,73.018181 
	C119.059067,75.137535 117.207077,74.465080 114.930695,72.686874 
	C109.164307,68.182396 103.151123,63.993862 97.238586,59.783745 
	C97.240395,59.888691 97.297844,59.686779 97.220139,59.365376 
	C92.768341,55.683147 88.394249,52.322323 84.010002,48.981178 
	C83.999855,49.000862 84.037689,48.977791 83.902161,48.669853 
	C81.914772,47.141071 80.062912,45.920231 78.170792,44.750908 
	C78.130539,44.802429 78.258522,44.775623 78.181580,44.516338 
	C77.800331,44.087685 77.496017,43.918316 77.215805,43.809975 
	C77.239899,43.871006 77.262627,43.741764 77.169312,43.421806 
	C75.774284,42.310379 74.472580,41.518906 73.181206,40.782360 
	C73.191544,40.837288 73.270584,40.758244 73.246704,40.498917 
	C73.103218,39.911053 72.983612,39.582516 72.791595,38.959290 
	C72.195244,38.425087 71.671318,38.185577 71.098862,37.948387 
	C71.050331,37.950706 71.037254,37.854431 70.982986,37.526566 
	C69.623314,37.050350 68.317917,36.902008 66.679535,36.836227 
	C65.892540,36.970455 65.438522,37.022121 64.909210,36.886688 
	C64.652954,36.885334 64.471992,37.071072 64.260849,37.255207 
	C64.230667,37.253605 64.210930,37.310745 63.807735,37.218079 
	C59.980690,39.226910 59.042648,45.082119 61.445465,50.406647 
	C61.473106,60.959354 61.405857,71.051636 61.201218,81.412033 
	C61.152134,83.069977 61.240444,84.459816 61.403572,86.197281 
	C61.481552,87.018440 61.484711,87.491951 61.300442,88.277008 
	C59.777237,90.703354 61.571812,94.956596 57.244728,94.966522 
	C46.406906,94.991394 35.568504,94.762383 24.689333,94.634743 
	C24.811731,92.317848 24.872478,91.167969 24.961651,89.611206 
	C27.610392,81.452194 29.848352,73.544052 32.933743,65.981667 
	C38.662708,51.939777 44.688107,38.009319 50.980286,24.210394 
	C54.590588,16.292902 58.967957,8.725183 63.000000,1.000000 
M57.000305,65.503296 
	C57.000305,71.117126 57.000305,76.730957 57.000305,82.344788 
	C57.437347,82.321198 57.874390,82.297600 58.311432,82.274010 
	C58.311432,71.746605 58.311432,61.219208 58.311432,50.691807 
	C57.874390,50.695358 57.437347,50.698914 57.000305,50.702465 
	C57.000305,55.303883 57.000305,59.905296 57.000305,65.503296 
z"/>
<path fill="currentColor" opacity="1.000000" stroke="none" 
	d="
M62.531342,1.000000 
	C58.967957,8.725183 54.590588,16.292902 50.980286,24.210394 
	C44.688107,38.009319 38.662708,51.939777 32.933743,65.981667 
	C29.848352,73.544052 27.610392,81.452194 24.626534,89.669464 
	C23.511684,91.748421 22.760382,93.362244 21.668056,94.983200 
	C20.872566,94.977165 20.418097,94.964005 19.721983,94.680191 
	C15.224658,93.300964 10.968977,92.192398 6.713296,91.083824 
	C6.575924,91.589630 6.438551,92.095428 6.301179,92.601234 
	C10.859564,94.067726 15.417948,95.534218 20.354183,97.073532 
	C21.139551,98.458138 22.044687,99.843590 21.863415,101.068222 
	C21.265017,105.110840 20.153393,109.074463 19.455278,113.105888 
	C16.927670,127.702194 13.658106,142.234283 12.249654,156.942017 
	C10.847710,171.581787 11.347888,186.403702 11.025606,201.366425 
	C11.037190,201.587097 11.018559,202.028656 11.004347,202.017273 
	C10.990134,202.005875 11.017314,201.981628 10.800437,202.079865 
	C10.260068,202.262558 10.011047,202.447342 9.412377,202.703400 
	C6.722346,202.681091 4.456438,202.687851 2.033172,202.519562 
	C1.602683,202.181900 1.310744,202.067062 1.000000,202.000000 
	C1.000000,135.111603 1.000000,68.223206 1.000000,1.000000 
	C21.353004,1.000000 41.707844,1.000000 62.531342,1.000000 
z"/>
<path fill="#333333" opacity="1.000000" stroke="none" 
	d="
M174.761780,46.988441 
	C174.817764,47.446491 174.873764,47.904537 174.582077,48.963028 
	C173.830307,51.978134 173.062912,54.394749 173.075867,56.807167 
	C173.325760,103.330986 173.674759,149.854279 173.981949,196.377792 
	C174.032639,204.053421 173.986023,204.006989 181.624268,203.996857 
	C200.082809,203.972382 218.541412,203.995850 237.000000,204.000000 
	C237.000000,206.700012 237.000000,209.400024 237.000000,212.550018 
	C215.542374,212.978790 194.084763,212.942627 172.627136,212.943451 
	C163.630219,212.943802 162.325897,211.321884 164.901367,202.275787 
	C165.094360,201.549988 164.963745,201.255524 164.833130,200.961044 
	C164.719452,199.979568 164.506454,198.998108 164.506348,198.016617 
	C164.501266,151.326508 164.514618,104.636391 164.851807,57.406208 
	C165.263596,56.758930 165.349503,56.651722 165.435410,56.544514 
	C165.225571,56.382980 165.015717,56.221447 164.805878,56.059914 
	C164.532593,55.301159 164.259293,54.542404 163.763199,53.165058 
	C156.587982,58.765564 149.602615,64.200668 142.636414,69.660255 
	C136.104706,74.779327 129.503342,79.815521 123.109451,85.102051 
	C119.721619,87.903137 116.977791,87.969429 113.457443,85.141708 
	C100.389877,74.645187 87.125221,64.394043 73.474464,53.694668 
	C72.744072,53.570206 72.473801,53.801815 72.203529,54.033424 
	C72.194496,70.032310 72.185471,86.031204 72.183929,102.904610 
	C72.219055,105.201019 72.246681,106.622910 72.274315,108.044800 
	C72.192841,139.464417 72.108688,170.884018 72.044662,202.303665 
	C72.042999,203.119934 72.202415,203.950119 72.386154,204.751007 
	C73.790329,210.871796 72.115089,212.939835 65.741341,212.938477 
	C47.784935,212.934662 29.828527,212.936142 11.423262,212.412140 
	C11.024102,209.257462 11.073801,206.626175 11.579220,203.994400 
	C27.524202,204.201584 43.013344,204.423965 58.503265,204.553146 
	C59.022175,204.557480 59.548939,203.620117 60.343933,203.058853 
	C60.981739,202.938141 61.347660,202.880264 62.058273,202.851761 
	C63.063789,202.309662 64.324585,201.700623 64.291519,201.172577 
	C63.998909,196.498978 63.061684,191.837051 63.091892,187.176697 
	C63.252228,162.437927 63.693043,137.700989 63.856300,112.962204 
	C63.871559,110.649506 62.626698,108.328484 61.939774,105.683548 
	C61.895374,104.917877 61.878109,104.480003 62.178482,103.765312 
	C62.988979,96.902290 63.891052,90.315773 63.886272,83.729919 
	C63.877361,71.451843 63.181835,59.174553 63.150387,46.895962 
	C63.143604,44.247379 64.739082,41.594688 65.411415,39.516148 
	C68.871887,40.063057 71.071236,40.410648 73.270584,40.758244 
	C73.270584,40.758244 73.191544,40.837288 73.239868,41.135391 
	C74.612999,42.202919 75.937813,42.972343 77.262627,43.741768 
	C77.262627,43.741764 77.239899,43.871006 77.260010,44.093700 
	C77.606247,44.469471 77.932388,44.622547 78.258522,44.775623 
	C78.258522,44.775623 78.130539,44.802429 78.216705,45.108952 
	C80.214485,46.602913 82.126083,47.790352 84.037689,48.977791 
	C84.037689,48.977791 83.999855,49.000862 83.997437,49.355560 
	C85.036552,50.992699 85.975273,52.380035 87.147568,53.529064 
	C88.403137,54.759708 90.523247,55.494385 91.126259,56.925709 
	C92.451744,60.071850 94.510201,60.408470 97.297844,59.686779 
	C97.297844,59.686779 97.240395,59.888691 97.266602,60.141098 
	C103.501389,65.577682 109.567993,70.946930 115.980034,75.865875 
	C119.063324,78.231201 121.224709,76.534584 121.987915,72.972008 
	C121.987915,72.972008 122.000038,73.001923 122.354691,73.009094 
	C124.138344,71.662155 125.567352,70.308044 126.996353,68.953934 
	C126.996353,68.953934 127.167580,68.746490 127.750916,68.827728 
	C130.219147,68.093040 132.251999,67.502472 133.943481,66.391953 
	C135.370331,65.455185 136.287292,63.778133 137.626541,62.665344 
	C143.493301,57.790604 149.404434,52.968014 155.359131,48.201050 
	C157.351501,46.606091 159.521347,45.232861 161.403015,43.904461 
	C162.879776,45.175426 163.918549,46.069424 165.018204,47.276577 
	C166.370132,46.737392 168.097565,46.155689 168.837936,44.961853 
	C169.697144,43.576382 169.690002,41.653648 170.421844,40.013748 
	C172.110443,42.371731 173.436111,44.680084 174.761780,46.988441 
z"/>
<path fill="currentColor" opacity="1.000000" stroke="none" 
	d="
M61.000000,355.000000 
	C41.106049,355.000000 21.212099,355.000000 1.000000,355.000000 
	C1.000000,347.648895 1.000000,340.293182 1.468049,332.441956 
	C4.079210,331.941406 6.222510,331.953003 8.365401,331.928650 
	C21.201685,331.782867 34.037872,331.628754 47.311596,331.550598 
	C49.806179,331.590942 51.863262,331.558136 54.228298,331.757324 
	C57.699257,332.863892 60.550972,334.080292 60.968849,338.373108 
	C60.938816,344.229065 60.969410,349.614532 61.000000,355.000000 
z"/>
<path fill="#DCDCDC" opacity="1.000000" stroke="none" 
	d="
M71.518227,340.964966 
	C77.531242,342.018250 83.515068,343.303833 89.564911,344.064087 
	C96.606880,344.948944 103.698029,345.756042 110.783165,345.915436 
	C123.747887,346.207031 136.724777,346.085571 149.694702,345.951721 
	C154.479233,345.902344 159.258392,345.331421 164.552399,345.370789 
	C165.155167,346.522858 165.245560,347.302521 165.255417,348.507721 
	C165.116577,350.955536 165.058289,352.977753 165.000000,355.000000 
	C133.979111,355.000000 102.958214,355.000000 71.597809,354.556641 
	C71.195641,350.730286 71.132980,347.347351 71.185181,343.600861 
	C71.372772,342.479889 71.445496,341.722412 71.518227,340.964966 
z"/>
<path fill="currentColor" opacity="1.000000" stroke="none" 
	d="
M237.000000,331.000000 
	C237.000000,331.444458 237.000000,331.888885 236.531357,332.662109 
	C217.906219,332.991638 199.749619,332.955750 181.593338,333.018799 
	C177.054016,333.034546 176.325272,334.738342 176.983536,341.720764 
	C177.342331,345.526642 179.388397,346.277832 182.772797,345.898224 
	C200.841736,343.871674 218.923004,341.954803 237.000000,340.000000 
	C237.000000,344.971039 237.000000,349.942078 237.000000,355.000000 
	C216.979187,355.000000 196.958252,355.000000 176.452621,354.606079 
	C175.832245,353.192780 175.696548,352.173340 175.627106,350.748169 
	C175.642090,349.518768 175.590805,348.695129 175.636642,347.483032 
	C175.575531,343.959473 175.314743,340.825500 175.281235,337.689056 
	C175.218811,331.847076 175.875320,331.253876 181.848816,331.228668 
	C200.232544,331.151154 218.616272,331.076050 237.000000,331.000000 
z"/>
<path fill="#303437" opacity="1.000000" stroke="none" 
	d="
M237.000000,330.555847 
	C218.616272,331.076050 200.232544,331.151154 181.848816,331.228668 
	C175.875320,331.253876 175.218811,331.847076 175.281235,337.689056 
	C175.314743,340.825500 175.575531,343.959473 175.323776,347.310883 
	C171.721176,347.712158 168.528564,347.897156 165.335953,348.082153 
	C165.245560,347.302521 165.155167,346.522858 164.973236,345.358765 
	C164.944336,339.711151 165.057022,334.447968 165.057663,329.184784 
	C165.058563,321.733368 166.096436,320.704987 173.695175,320.948975 
	C174.516663,320.975311 175.336105,321.065308 176.726578,321.622253 
	C179.010925,322.414124 180.724365,322.960541 182.439606,322.966278 
	C200.626251,323.026947 218.813156,323.001617 237.000000,323.000000 
	C237.000000,325.370575 237.000000,327.741119 237.000000,330.555847 
z"/>
<path fill="currentColor" opacity="1.000000" stroke="none" 
	d="
M237.000000,339.562500 
	C218.923004,341.954803 200.841736,343.871674 182.772797,345.898224 
	C179.388397,346.277832 177.342331,345.526642 176.983536,341.720764 
	C176.325272,334.738342 177.054016,333.034546 181.593338,333.018799 
	C199.749619,332.955750 217.906219,332.991638 236.531357,332.995453 
	C237.000000,335.041656 237.000000,337.083344 237.000000,339.562500 
z"/>
<path fill="#020205" opacity="1.000000" stroke="none" 
	d="
M53.920341,331.525299 
	C51.863262,331.558136 49.806179,331.590942 46.969013,331.367249 
	C31.125952,331.073853 16.062975,331.036926 1.000000,331.000000 
	C1.000000,327.969391 1.000000,324.938812 1.000000,321.454102 
	C16.336874,321.076691 31.673750,321.153412 47.452812,321.683502 
	C49.903450,325.266357 51.911892,328.395813 53.920341,331.525299 
z"/>
<path fill="#1A384A" opacity="1.000000" stroke="none" 
	d="
M237.000000,203.666672 
	C218.541412,203.995850 200.082809,203.972382 181.624268,203.996857 
	C173.986023,204.006989 174.032639,204.053421 173.981949,196.377792 
	C173.674759,149.854279 173.325760,103.330986 173.075867,56.807167 
	C173.062912,54.394749 173.830307,51.978134 174.500641,49.302002 
	C174.848511,51.029320 175.000580,53.018074 175.001419,55.006889 
	C175.021194,101.743774 175.020050,148.480667 175.036087,195.217560 
	C175.038513,202.247391 175.069290,202.259720 182.189148,202.252960 
	C200.151703,202.235916 218.114273,202.206635 236.538422,202.091125 
	C237.000000,202.444443 237.000000,202.888901 237.000000,203.666672 
z"/>
<path fill="#020205" opacity="1.000000" stroke="none" 
	d="
M71.070320,343.964386 
	C71.132980,347.347351 71.195641,350.730286 71.129150,354.556641 
	C67.969406,355.000000 64.938812,355.000000 61.454109,355.000000 
	C60.969410,349.614532 60.938816,344.229065 61.314117,338.436951 
	C64.836777,340.008331 67.953552,341.986359 71.070320,343.964386 
z"/>
<path fill="#272127" opacity="1.000000" stroke="none" 
	d="
M237.000000,322.750000 
	C218.813156,323.001617 200.626251,323.026947 182.439606,322.966278 
	C180.724365,322.960541 179.010925,322.414124 177.158569,321.760193 
	C196.835297,321.375793 216.650101,321.349854 236.732452,321.661987 
	C237.000000,322.000000 237.000000,322.500000 237.000000,322.750000 
z"/>
<path fill="#020204" opacity="1.000000" stroke="none" 
	d="
M11.123501,203.994904 
	C11.073801,206.626175 11.024102,209.257462 10.958558,212.323349 
	C7.929728,212.816528 4.916743,212.875092 1.451879,212.966827 
	C1.000000,209.969406 1.000000,206.938812 1.311230,203.430771 
	C1.811817,202.867096 2.001173,202.780853 2.190528,202.694611 
	C4.456438,202.687851 6.722346,202.681091 9.732594,202.806763 
	C10.699923,202.914505 10.922915,202.889847 11.090933,202.936584 
	C11.035957,203.007980 11.126073,202.852493 11.090637,203.138153 
	C11.077967,203.614166 11.100733,203.804535 11.123501,203.994904 
z"/>
<path fill="#030305" opacity="1.000000" stroke="none" 
	d="
M165.255417,348.507721 
	C168.528564,347.897156 171.721176,347.712158 175.226654,347.699341 
	C175.590805,348.695129 175.642090,349.518768 175.439850,351.008728 
	C175.124207,352.783356 175.062103,353.891663 175.000000,355.000000 
	C171.969406,355.000000 168.938812,355.000000 165.454102,355.000000 
	C165.058289,352.977753 165.116577,350.955536 165.255417,348.507721 
z"/>
<path fill="#29333B" opacity="1.000000" stroke="none" 
	d="
M1.000000,331.250000 
	C16.062975,331.036926 31.125952,331.073853 46.531509,331.294098 
	C34.037872,331.628754 21.201685,331.782867 8.365401,331.928650 
	C6.222510,331.953003 4.079210,331.941406 1.468049,331.973206 
	C1.000000,332.000000 1.000000,331.500000 1.000000,331.250000 
z"/>
<path fill="#303437" opacity="1.000000" stroke="none" 
	d="
M175.250000,355.000000 
	C175.062103,353.891663 175.124207,352.783356 175.373596,351.414490 
	C175.696548,352.173340 175.832245,353.192780 175.983963,354.606079 
	C176.000000,355.000000 175.500000,355.000000 175.250000,355.000000 
z"/>
<path fill="#1A384A" opacity="1.000000" stroke="none" 
	d="
M2.033172,202.519562 
	C2.001173,202.780853 1.811817,202.867096 1.311230,202.976654 
	C1.000000,203.000000 1.000000,202.500000 1.000000,202.250000 
	C1.310744,202.067062 1.602683,202.181900 2.033172,202.519562 
z"/>
<path fill="#060606" opacity="1.000000" stroke="none" 
	d="
M72.817032,261.890442 
	C60.304520,271.187500 46.420330,270.325195 32.195999,267.534851 
	C25.240396,266.170410 18.542881,264.631042 13.977257,258.466827 
	C11.324140,254.884750 10.352094,250.312943 13.056764,247.535248 
	C15.133865,245.402084 19.992760,244.891586 23.385098,245.351562 
	C30.409521,246.304031 37.221611,248.742203 44.231220,249.905197 
	C52.401848,251.260818 60.706837,251.788788 68.915596,252.945129 
	C70.909851,253.226059 72.755569,254.561462 74.902710,256.079041 
	C74.362900,258.460876 73.589966,260.175659 72.817032,261.890442 
z"/>
<path fill="#060606" opacity="1.000000" stroke="none" 
	d="
M164.120346,258.972504 
	C163.890778,254.592484 166.603851,252.960373 170.339081,252.912476 
	C186.240601,252.708527 201.482178,248.893723 216.803101,245.177277 
	C219.796127,244.451233 224.602264,245.548599 226.571365,247.665802 
	C229.101074,250.385773 228.591019,255.087250 225.592743,258.117645 
	C222.973114,260.765350 220.055740,263.819702 216.692535,264.904785 
	C204.447815,268.855225 191.856873,271.368408 179.011032,267.897797 
	C175.398392,266.921753 172.095642,264.798798 168.172302,262.825745 
	C166.502670,261.290588 165.311508,260.131561 164.120346,258.972504 
z"/>
<path fill="#DDDDDD" opacity="1.000000" stroke="none" 
	d="
M163.722794,258.944275 
	C165.311508,260.131561 166.502670,261.290588 167.838501,262.728760 
	C138.467316,263.001007 108.951454,263.008026 79.435684,262.955597 
	C77.491180,262.952148 75.547478,262.495087 73.210220,262.069763 
	C73.589966,260.175659 74.362900,258.460876 75.136978,256.368896 
	C75.784561,256.318787 76.572403,257.071014 77.056541,256.910004 
	C86.545311,253.754532 95.980400,250.437363 105.473427,247.295181 
	C107.616211,246.585922 109.935730,246.410645 112.756844,246.323914 
	C113.714249,247.911819 113.763847,249.450760 114.548523,250.343903 
	C115.451233,251.371368 117.004059,251.827698 118.274521,252.532089 
	C118.252220,251.159683 118.318031,249.778397 118.180946,248.417557 
	C118.061943,247.236221 117.713280,246.078003 117.466125,244.909576 
	C121.823692,246.273865 126.172203,247.667953 130.540604,248.996597 
	C141.464005,252.318924 152.396439,255.611526 163.722794,258.944275 
z"/>
<path fill="#29333B" opacity="1.000000" stroke="none" 
	d="
M71.185181,343.600861 
	C67.953552,341.986359 64.836777,340.008331 61.374744,337.966461 
	C60.550972,334.080292 57.699257,332.863892 54.228294,331.757324 
	C51.911892,328.395813 49.903450,325.266357 47.902824,321.798462 
	C53.837280,321.264954 59.762985,321.031342 65.690872,320.888519 
	C69.577377,320.794891 71.426231,322.796509 71.396355,326.674042 
	C71.362030,331.128632 71.409195,335.583862 71.469589,340.501892 
	C71.445496,341.722412 71.372772,342.479889 71.185181,343.600861 
z"/>
<path fill="#0F0F0F" opacity="1.000000" stroke="none" 
	d="
M117.368500,244.488831 
	C117.713280,246.078003 118.061943,247.236221 118.180946,248.417557 
	C118.318031,249.778397 118.252220,251.159683 118.274521,252.532089 
	C117.004059,251.827698 115.451233,251.371368 114.548523,250.343903 
	C113.763847,249.450760 113.714249,247.911819 113.180313,246.331207 
	C112.895187,239.163239 115.322258,234.173645 120.033501,232.727371 
	C119.061615,236.717010 118.166245,240.392563 117.368500,244.488831 
z"/>
<path fill="#E2E2E2" opacity="1.000000" stroke="none" 
	d="
M72.689529,108.036942 
	C72.246681,106.622910 72.219055,105.201019 72.280838,103.360359 
	C79.383354,105.638153 86.396446,108.334717 93.409538,111.031281 
	C93.340736,111.262764 93.271935,111.494247 93.203133,111.725731 
	C86.503670,110.493515 79.804207,109.261299 72.689529,108.036942 
z"/>
<path fill="#E2E2E2" opacity="1.000000" stroke="none" 
	d="
M72.487762,54.011768 
	C72.473801,53.801815 72.744072,53.570206 73.164848,53.578037 
	C73.134239,53.875027 72.953117,53.932568 72.487762,54.011768 
z"/>
<path fill="#212528" opacity="1.000000" stroke="none" 
	d="
M164.708252,56.306747 
	C165.015717,56.221447 165.225571,56.382980 165.435410,56.544514 
	C165.349503,56.651722 165.263596,56.758930 164.989349,56.957649 
	C164.737534,56.883976 164.674088,56.718784 164.708252,56.306747 
z"/>
<path fill="#212528" opacity="1.000000" stroke="none" 
	d="
M164.750916,201.232117 
	C164.963745,201.255524 165.094360,201.549988 165.035660,201.942810 
	C164.787109,201.861832 164.727905,201.682510 164.750916,201.232117 
z"/>
<path fill="currentColor" opacity="1.000000" stroke="none" 
	d="
M22.009079,94.976067 
	C22.760382,93.362244 23.511684,91.748421 24.598106,90.076340 
	C24.872478,91.167969 24.811731,92.317848 24.689333,94.634743 
	C35.568504,94.762383 46.406906,94.991394 57.244728,94.966522 
	C61.571812,94.956596 59.777237,90.703354 61.405594,88.718445 
	C61.501354,93.842995 61.304539,98.837654 61.054863,104.297638 
	C60.958267,107.530067 60.914536,110.297165 60.623245,112.745270 
	C59.442562,104.076660 59.440563,104.084900 50.562355,101.931320 
	C41.042374,99.622070 31.526657,97.295227 22.009079,94.976067 
z"/>
<path fill="#1A384A" opacity="1.000000" stroke="none" 
	d="
M174.850983,46.572548 
	C173.436111,44.680084 172.110443,42.371731 170.406128,40.020485 
	C170.027466,39.977596 170.017319,39.959049 169.830353,39.711418 
	C168.759750,39.636543 167.876114,39.809296 166.821259,40.306900 
	C166.085785,42.742310 165.521545,44.852867 164.957306,46.963425 
	C163.918549,46.069424 162.879776,45.175426 161.403015,43.904461 
	C159.521347,45.232861 157.351501,46.606091 155.359131,48.201050 
	C149.404434,52.968014 143.493301,57.790604 137.626541,62.665344 
	C136.287292,63.778133 135.370331,65.455185 133.943481,66.391953 
	C132.251999,67.502472 130.219147,68.093040 127.885315,68.832504 
	C134.836411,62.638672 142.188995,56.462601 149.654510,50.426208 
	C154.044708,46.876415 158.628952,43.567436 163.097549,40.113415 
	C165.602936,38.176865 168.023865,35.721519 171.535202,37.493244 
	C175.115768,39.299889 175.208450,42.712585 174.850983,46.572548 
z"/>
<path fill="#1A384A" opacity="1.000000" stroke="none" 
	d="
M61.107727,103.832306 
	C61.304539,98.837654 61.501354,93.842995 61.593018,88.406906 
	C61.484711,87.491951 61.481552,87.018440 61.577732,85.831642 
	C61.564251,83.793549 61.451431,82.468727 61.338612,81.143913 
	C61.405857,71.051636 61.473106,60.959354 61.630829,50.000366 
	C62.551178,45.192688 63.381054,41.251717 64.210922,37.310745 
	C64.210930,37.310745 64.230667,37.253605 64.446884,37.262238 
	C64.663101,37.270874 64.984512,37.073784 64.984512,37.073784 
	C65.438522,37.022121 65.892540,36.970455 67.009674,36.958199 
	C68.794281,37.283211 69.915764,37.568821 71.037254,37.854431 
	C71.037254,37.854431 71.050331,37.950706 71.192688,38.224083 
	C71.844696,38.749634 72.354355,39.001804 72.864006,39.253979 
	C72.983612,39.582516 73.103218,39.911053 73.246704,40.498917 
	C71.071236,40.410648 68.871887,40.063057 65.411415,39.516148 
	C64.739082,41.594688 63.143604,44.247379 63.150387,46.895962 
	C63.181835,59.174553 63.877361,71.451843 63.886272,83.729919 
	C63.891052,90.315773 62.988979,96.902290 61.988350,103.720665 
	C61.480579,103.952827 61.107727,103.832306 61.107727,103.832306 
z"/>
<path fill="currentColor" opacity="1.000000" stroke="none" 
	d="
M57.000305,65.005005 
	C57.000305,59.905296 57.000305,55.303883 57.000305,50.702465 
	C57.437347,50.698914 57.874390,50.695358 58.311432,50.691807 
	C58.311432,61.219208 58.311432,71.746605 58.311432,82.274010 
	C57.874390,82.297600 57.437347,82.321198 57.000305,82.344788 
	C57.000305,76.730957 57.000305,71.117126 57.000305,65.005005 
z"/>
<path fill="#1A384A" opacity="1.000000" stroke="none" 
	d="
M121.658768,73.018181 
	C121.224709,76.534584 119.063324,78.231201 115.980034,75.865875 
	C109.567993,70.946930 103.501389,65.577682 97.264801,60.036148 
	C103.151123,63.993862 109.164307,68.182396 114.930695,72.686874 
	C117.207077,74.465080 119.059067,75.137535 121.658768,73.018181 
z"/>
<path fill="#1A384A" opacity="1.000000" stroke="none" 
	d="
M97.220139,59.365376 
	C94.510201,60.408470 92.451744,60.071850 91.126259,56.925709 
	C90.523247,55.494385 88.403137,54.759708 87.147568,53.529064 
	C85.975273,52.380035 85.036552,50.992699 84.007584,49.335876 
	C88.394249,52.322323 92.768341,55.683147 97.220139,59.365376 
z"/>
<path fill="currentColor" opacity="1.000000" stroke="none" 
	d="
M63.807732,37.218079 
	C63.381054,41.251717 62.551178,45.192688 61.535938,49.539940 
	C59.042648,45.082119 59.980690,39.226910 63.807732,37.218079 
z"/>
<path fill="#1A384A" opacity="1.000000" stroke="none" 
	d="
M83.902161,48.669853 
	C82.126083,47.790352 80.214485,46.602913 78.256958,45.057434 
	C80.062912,45.920231 81.914772,47.141071 83.902161,48.669853 
z"/>
<path fill="#1A384A" opacity="1.000000" stroke="none" 
	d="
M126.668289,69.003281 
	C125.567352,70.308044 124.138344,71.662155 122.340683,73.000931 
	C123.428093,71.674606 124.884163,70.363617 126.668289,69.003281 
z"/>
<path fill="#1A384A" opacity="1.000000" stroke="none" 
	d="
M77.169312,43.421810 
	C75.937813,42.972343 74.612999,42.202919 73.229523,41.080463 
	C74.472580,41.518906 75.774284,42.310379 77.169312,43.421810 
z"/>
<path fill="currentColor" opacity="1.000000" stroke="none" 
	d="
M70.982986,37.526566 
	C69.915764,37.568821 68.794281,37.283211 67.342651,36.875633 
	C68.317917,36.902008 69.623314,37.050350 70.982986,37.526566 
z"/>
<path fill="currentColor" opacity="1.000000" stroke="none" 
	d="
M61.201218,81.412033 
	C61.451431,82.468727 61.564251,83.793549 61.502914,85.484009 
	C61.240444,84.459816 61.152134,83.069977 61.201218,81.412033 
z"/>
<path fill="currentColor" opacity="1.000000" stroke="none" 
	d="
M72.791595,38.959290 
	C72.354355,39.001804 71.844696,38.749634 71.241211,38.221764 
	C71.671318,38.185577 72.195244,38.425087 72.791595,38.959290 
z"/>
<path fill="#1A384A" opacity="1.000000" stroke="none" 
	d="
M78.181580,44.516338 
	C77.932388,44.622547 77.606247,44.469471 77.235916,44.032669 
	C77.496017,43.918316 77.800331,44.087685 78.181580,44.516338 
z"/>
<path fill="currentColor" opacity="1.000000" stroke="none" 
	d="
M64.909210,36.886688 
	C64.984512,37.073784 64.663101,37.270874 64.477066,37.263840 
	C64.471992,37.071072 64.652954,36.885334 64.909210,36.886688 
z"/>
<path fill="currentColor" opacity="1.000000" stroke="none" 
	d="
M21.668056,94.983200 
	C31.526657,97.295227 41.042374,99.622070 50.562355,101.931320 
	C59.440563,104.084900 59.442562,104.076660 60.768337,112.814926 
	C61.160988,113.203568 61.461868,113.313400 61.518433,113.755890 
	C61.567673,140.715851 61.560345,167.233307 61.250824,193.940720 
	C58.917507,196.617828 61.815216,201.465881 56.573280,202.595352 
	C55.581497,202.575180 54.920864,202.533340 54.083626,202.216003 
	C52.184383,202.118500 50.461739,202.296494 48.291496,202.518799 
	C35.604626,202.659561 23.365349,202.756027 11.126073,202.852493 
	C11.126073,202.852493 11.035957,203.007980 11.093021,202.710800 
	C11.150084,202.413620 11.017314,201.981628 11.017314,201.981628 
	C11.017314,201.981628 10.990134,202.005875 11.166099,201.953201 
	C11.232715,201.648941 11.123366,201.397339 11.014020,201.145752 
	C11.347888,186.403702 10.847710,171.581787 12.249654,156.942017 
	C13.658106,142.234283 16.927670,127.702194 19.455278,113.105888 
	C20.153393,109.074463 21.265017,105.110840 21.863415,101.068222 
	C22.044687,99.843590 21.139551,98.458138 20.353947,96.732185 
	C19.971785,95.862297 19.967705,95.406578 19.963627,94.950851 
	C20.418097,94.964005 20.872566,94.977165 21.668056,94.983200 
M58.999542,146.500000 
	C58.999542,135.562759 58.999542,124.625526 58.999542,113.688293 
	C58.563179,113.698868 58.126816,113.709442 57.690453,113.720016 
	C57.690453,139.578537 57.690453,165.437057 57.690453,191.295593 
	C58.126816,191.295303 58.563179,191.295013 58.999542,191.294724 
	C58.999542,176.696472 58.999542,162.098236 58.999542,146.500000 
z"/>
<path fill="currentColor" opacity="1.000000" stroke="none" 
	d="
M19.721981,94.680191 
	C19.967705,95.406578 19.971785,95.862297 19.976097,96.659363 
	C15.417948,95.534218 10.859564,94.067726 6.301179,92.601234 
	C6.438551,92.095428 6.575924,91.589630 6.713296,91.083824 
	C10.968977,92.192398 15.224658,93.300964 19.721981,94.680191 
z"/>
<path fill="#1A384A" opacity="1.000000" stroke="none" 
	d="
M10.800437,202.079865 
	C11.017314,201.981628 11.150084,202.413620 11.147996,202.639404 
	C10.922915,202.889847 10.699923,202.914505 10.156715,202.835815 
	C10.011047,202.447342 10.260068,202.262558 10.800437,202.079865 
z"/>
<path fill="currentColor" opacity="1.000000" stroke="none" 
	d="
M11.025604,201.366425 
	C11.123366,201.397339 11.232715,201.648941 11.180311,201.964600 
	C11.018559,202.028656 11.037190,201.587097 11.025604,201.366425 
z"/>
<path fill="#1A384A" opacity="1.000000" stroke="none" 
	d="
M61.553020,193.750778 
	C61.560345,167.233307 61.567673,140.715851 61.662331,113.308861 
	C61.822079,110.283340 61.894493,108.147331 61.966911,106.011330 
	C62.626698,108.328484 63.871559,110.649506 63.856300,112.962204 
	C63.693043,137.700989 63.252228,162.437927 63.091892,187.176697 
	C63.061684,191.837051 63.998909,196.498978 64.291519,201.172577 
	C64.324585,201.700623 63.063789,202.309662 62.148582,202.418335 
	C61.780472,199.220612 61.666748,196.485703 61.553020,193.750778 
z"/>
<path fill="#1A384A" opacity="1.000000" stroke="none" 
	d="
M54.260231,202.491486 
	C54.920864,202.533340 55.581497,202.575180 56.950752,202.739166 
	C58.463593,202.948105 59.267815,203.034897 60.072044,203.121689 
	C59.548939,203.620117 59.022175,204.557480 58.503265,204.553146 
	C43.013344,204.423965 27.524202,204.201584 11.579219,203.994400 
	C11.100733,203.804535 11.077967,203.614166 11.090637,203.138153 
	C23.365349,202.756027 35.604626,202.659561 48.735924,202.675659 
	C51.172043,202.689331 52.716137,202.590408 54.260231,202.491486 
z"/>
<path fill="#332D20" opacity="1.000000" stroke="none" 
	d="
M165.018204,47.276581 
	C165.521545,44.852867 166.085785,42.742310 167.199341,40.311798 
	C168.504883,39.980911 169.261093,39.969978 170.017319,39.959049 
	C170.017319,39.959049 170.027466,39.977596 170.043182,39.970856 
	C169.690002,41.653648 169.697144,43.576382 168.837936,44.961853 
	C168.097565,46.155689 166.370132,46.737392 165.018204,47.276581 
z"/>
<path fill="currentColor" opacity="1.000000" stroke="none" 
	d="
M60.343929,203.058853 
	C59.267815,203.034897 58.463593,202.948105 57.281898,202.717499 
	C61.815216,201.465881 58.917507,196.617828 61.250824,193.940720 
	C61.666748,196.485703 61.780472,199.220612 61.803890,202.388962 
	C61.347660,202.880264 60.981739,202.938141 60.343929,203.058853 
z"/>
<path fill="currentColor" opacity="1.000000" stroke="none" 
	d="
M61.939774,105.683548 
	C61.894493,108.147331 61.822079,110.283340 61.605766,112.866371 
	C61.461868,113.313400 61.160988,113.203568 61.015896,113.133911 
	C60.914536,110.297165 60.958267,107.530067 61.054863,104.297638 
	C61.107727,103.832306 61.480579,103.952827 61.670712,103.997475 
	C61.878109,104.480003 61.895374,104.917877 61.939774,105.683548 
z"/>
<path fill="#333333" opacity="1.000000" stroke="none" 
	d="
M169.830353,39.711418 
	C169.261093,39.969978 168.504883,39.980911 167.370575,39.986946 
	C167.876114,39.809296 168.759750,39.636543 169.830353,39.711418 
z"/>
<path fill="currentColor" opacity="1.000000" stroke="none" 
	d="
M58.999542,147.000000 
	C58.999542,162.098236 58.999542,176.696472 58.999542,191.294724 
	C58.563179,191.295013 58.126816,191.295303 57.690453,191.295593 
	C57.690453,165.437057 57.690453,139.578537 57.690453,113.720016 
	C58.126816,113.709442 58.563179,113.698868 58.999542,113.688293 
	C58.999542,124.625526 58.999542,135.562759 58.999542,147.000000 
z"/>
<path fill="currentColor" opacity="1.000000" stroke="none" 
	d="
M54.083626,202.216003 
	C52.716137,202.590408 51.172043,202.689331 49.183521,202.631378 
	C50.461739,202.296494 52.184383,202.118500 54.083626,202.216003 
z"/>
</svg>